<?xml version="1.0" encoding="UTF-8"?>
<svg xmlns="http://www.w3.org/2000/svg" xmlns:xlink="http://www.w3.org/1999/xlink" width="432px" height="512px" viewBox="0 0 432 493" version="1.1">
<g id="surface1">
<path style=" stroke:none;fill-rule:nonzero;fill:rgb(25.882354%,67.843139%,32.549021%);fill-opacity:1;" d="M 204.351562 28.808594 C 211.292969 60.085938 206.355469 89.203125 219.625 120.015625 C 222.867188 127.5625 228.882812 139.117188 234.589844 144.972656 C 235.054688 145.433594 234.898438 145.433594 235.671875 145.28125 C 241.6875 121.246094 265.757812 102.757812 290.90625 105.226562 C 292.601562 98.601562 298.003906 93.054688 304.484375 91.050781 L 285.351562 39.902344 L 216.078125 0 L 199.261719 9.707031 C 200.648438 16.023438 202.960938 22.339844 204.351562 28.808594 Z M 204.351562 28.808594 "/>
<path style=" stroke:none;fill-rule:nonzero;fill:rgb(25.882354%,67.843139%,32.549021%);fill-opacity:1;" d="M 429.761719 147.285156 C 424.824219 147.59375 419.734375 148.363281 414.953125 149.441406 C 388.414062 155.449219 367.429688 175.476562 341.355469 183.796875 C 278.871094 203.980469 219.78125 165 204.660156 103.222656 C 198.335938 77.492188 201.113281 51.148438 194.785156 25.574219 C 194.324219 23.570312 192.007812 15.714844 191.082031 14.480469 C 191.082031 14.480469 191.082031 14.480469 190.929688 14.328125 C 190.929688 14.328125 2.238281 123.25 2.238281 123.25 L 2.238281 369.75 C 2.238281 369.75 216.078125 493 216.078125 493 L 429.917969 369.75 L 429.917969 147.285156 Z M 340.894531 375.757812 C 340.121094 380.226562 339.351562 393.476562 332.253906 389.777344 C 327.933594 387.621094 330.710938 383.617188 331.328125 380.378906 C 335.1875 357.269531 337.191406 337.703125 325.773438 316.289062 C 323.460938 311.976562 320.066406 308.277344 317.75 303.964844 C 322.84375 284.554688 329.015625 256.050781 314.664062 239.257812 C 313.585938 238.027344 306.488281 230.941406 305.101562 232.480469 C 301.550781 258.363281 291.058594 283.011719 275.324219 303.65625 C 279.796875 310.4375 283.5 316.90625 283.808594 325.378906 C 286.121094 372.367188 205.585938 390.546875 223.792969 437.074219 C 224.71875 439.230469 228.421875 445.242188 228.574219 446.472656 C 229.039062 449.707031 224.871094 452.171875 221.941406 450.480469 C 218.699219 448.476562 214.378906 436.460938 213.453125 432.609375 C 208.980469 416.277344 217.773438 399.792969 228.730469 387.46875 C 244.773438 369.441406 285.660156 345.871094 272.855469 316.597656 C 272.390625 315.675781 270.230469 311.359375 269.304688 311.515625 C 268.378906 311.667969 264.214844 317.367188 263.132812 318.601562 C 236.75 346.949219 193.398438 370.519531 154.054688 372.214844 C 148.808594 372.367188 148.808594 371.90625 146.496094 367.746094 C 127.207031 333.699219 124.277344 287.941406 135.386719 250.8125 C 136.929688 245.574219 139.398438 240.335938 140.632812 235.097656 C 133.6875 236.332031 126.898438 237.101562 120.574219 240.644531 C 91.105469 256.515625 103.292969 310.742188 76.292969 334.625 C 70.121094 340.015625 55.15625 348.027344 46.980469 348.488281 C 42.503906 348.796875 40.652344 343.558594 43.277344 341.25 C 44.664062 340.015625 53.613281 337.859375 56.390625 336.625 C 96.195312 319.832031 81.078125 273.921875 102.523438 244.960938 C 112.398438 231.554688 128.75 228.011719 144.644531 227.242188 C 147.421875 221.851562 150.351562 216.457031 153.589844 211.375 C 163.621094 195.503906 175.191406 182.410156 188.769531 169.46875 C 189.539062 168.699219 191.238281 168.699219 189.695312 167.464844 C 187.6875 165.925781 179.511719 164.230469 176.886719 164.078125 C 152.820312 162.535156 134.460938 182.5625 118.261719 197.199219 C 117.335938 197.664062 116.410156 197.507812 115.484375 197.507812 C 109.15625 197.355469 103.292969 196.277344 96.660156 197.046875 C 83.855469 198.277344 71.511719 203.980469 60.867188 211.066406 C 52.226562 216.765625 44.972656 224.007812 36.644531 229.859375 C 32.324219 230.324219 29.699219 225.855469 32.632812 222.3125 C 36.027344 218.152344 47.132812 210.140625 52.070312 206.75 C 70.894531 193.503906 90.953125 185.953125 114.558594 188.726562 C 133.070312 170.394531 159.761719 148.824219 187.535156 158.375 C 189.230469 158.992188 194.476562 161.917969 195.402344 161.917969 C 200.1875 162.074219 200.957031 154.214844 208.980469 157.761719 C 219.78125 162.382812 231.503906 170.238281 241.996094 175.9375 C 261.28125 186.414062 281.496094 196.121094 299.855469 207.832031 C 300.933594 208.445312 304.945312 209.832031 305.5625 210.910156 C 306.335938 212.296875 305.101562 223.238281 305.71875 223.851562 C 316.671875 227.089844 324.695312 236.484375 328.550781 246.960938 C 335.03125 264.832031 331.484375 284.246094 327.007812 302.117188 C 327.007812 303.65625 331.175781 308.742188 332.253906 310.589844 C 344.132812 331.851562 344.597656 352.339844 340.585938 375.757812 Z M 340.894531 375.757812 "/>
<path style=" stroke:none;fill-rule:nonzero;fill:rgb(25.882354%,67.843139%,32.549021%);fill-opacity:1;" d="M 367.121094 87.199219 L 314.664062 97.367188 C 314.664062 100.601562 314.664062 103.683594 313.429688 106.765625 C 312.660156 108.613281 308.1875 114.160156 308.1875 114.621094 C 308.1875 115.546875 311.425781 120.632812 312.042969 122.324219 C 319.449219 140.195312 313.738281 161.917969 301.089844 175.9375 C 300.472656 176.710938 295.84375 180.097656 296.460938 180.714844 C 312.042969 182.5625 328.089844 179.945312 342.746094 174.554688 C 367.429688 165.464844 385.792969 147.898438 411.558594 141.890625 C 417.421875 140.503906 423.898438 139.734375 429.917969 139.273438 L 429.917969 123.402344 L 367.277344 87.351562 Z M 367.121094 87.199219 "/>
<path style=" stroke:none;fill-rule:nonzero;fill:rgb(25.882354%,67.843139%,32.549021%);fill-opacity:1;" d="M 311.578125 92.746094 L 360.335938 83.195312 L 292.140625 43.90625 L 310.039062 91.820312 C 310.039062 91.820312 310.960938 92.4375 311.578125 92.746094 Z M 311.578125 92.746094 "/>
</g>
</svg>
