<?xml version="1.0" encoding="UTF-8"?> <svg xmlns="http://www.w3.org/2000/svg" width="184" height="184" viewBox="0 0 184 184" fill="none"><path d="M91.999 184C140.626 184 180.046 144.58 180.046 95.9531C180.046 47.3262 140.626 7.90625 91.999 7.90625C43.3721 7.90625 3.95215 47.3262 3.95215 95.9531C3.95215 144.58 43.3721 184 91.999 184Z" fill="#C3DDF4"></path><path d="M91.999 184C140.626 184 180.046 144.58 180.046 95.9531C180.046 47.3262 140.626 7.90625 91.999 7.90625C43.3721 7.90625 3.95215 47.3262 3.95215 95.9531C3.95215 144.58 43.3721 184 91.999 184Z" fill="#C3DDF4"></path><path d="M24.1382 137.281H14.2432C17.0456 142.543 20.3673 147.486 24.1382 152.044V137.281Z" fill="#EA2A3D"></path><path d="M151.874 137.281L151.096 140.059C151.088 140.091 151.083 140.124 151.083 140.156V161.225C158.605 154.41 164.945 146.315 169.756 137.281H151.874Z" fill="#EA2A3D"></path><path d="M26.7824 60.2003H39.8942V57.0411H36.8061C36.2131 57.0411 35.728 56.5559 35.728 55.963V55.6154C35.728 55.0225 36.2131 54.5373 36.8061 54.5373H39.8942V52.1094C39.8942 51.9829 39.9204 51.8628 39.9607 51.75H26.7824C24.2007 51.75 22.0879 53.6511 22.0879 55.9748C22.0879 58.2992 24.2007 60.2003 26.7824 60.2003Z" fill="#83C3FF"></path><path d="M42.334 51.75C42.3742 51.8628 42.4005 51.9829 42.4005 52.1094V54.5373H45.4886C46.0815 54.5373 46.5667 55.0225 46.5667 55.6154V55.963C46.5667 56.5559 46.0815 57.0411 45.4886 57.0411H42.4005V60.2003H50.1396C52.7217 60.2003 54.8341 62.1014 54.8341 64.4259C54.8341 66.75 52.7217 68.651 50.1396 68.651H44.6142C44.6401 68.8232 44.6545 68.9989 44.6545 69.1779C44.6545 70.6725 43.7176 71.9451 42.4005 72.4496V74.6178H42.3437C42.8249 75.4576 43.3334 76.2856 43.8588 77.1018H74.4765L80.1938 64.5301C80.2556 64.3946 80.3095 64.3457 80.3296 64.331C80.3336 64.3457 80.3875 64.3946 80.4493 64.5301L81.3743 66.5638C81.4329 66.6925 81.5612 66.7744 81.7014 66.7744C81.7068 66.7744 81.7121 66.7744 81.7179 66.774C81.8645 66.7672 81.9925 66.672 82.0406 66.5333L87.1861 51.75H42.334Z" fill="#83C3FF"></path><path d="M39.8411 74.6174H39.894V72.4493C38.5769 71.9451 37.64 70.6725 37.64 69.1775C37.64 68.9986 37.6543 68.8228 37.6802 68.6507H8.27256C7.37305 71.4103 6.60686 74.2293 5.98047 77.1014H38.294C38.8302 76.2831 39.3495 75.4551 39.8411 74.6174Z" fill="#83C3FF"></path><path d="M120.558 51.75H103.46L106.401 60.2003H120.558C123.14 60.2003 125.253 58.2992 125.253 55.9748C125.253 53.6511 123.14 51.75 120.558 51.75Z" fill="#83C3FF"></path><path d="M131.406 76.4169C131.406 74.9823 132.305 73.7608 133.569 73.2771V68.6512H117.038C115.435 68.6512 114.014 69.3847 113.166 70.4962L116.133 77.021C116.426 77.0731 116.728 77.1019 117.038 77.1019H131.476C131.43 76.8805 131.406 76.6516 131.406 76.4169Z" fill="#83C3FF"></path><path d="M135.973 68.6934V73.2768C137.193 73.744 138.07 74.8983 138.13 76.2675C139.286 75.4956 140.042 74.263 140.042 72.8758C140.042 70.744 138.261 68.9715 135.973 68.6934Z" fill="#83C3FF"></path><path d="M88.7248 39.8905C88.7248 39.4941 89.0472 39.1718 89.4435 39.1718H89.8029C90.0013 39.1718 90.1623 39.0111 90.1623 38.8124V33.673H55.3119C53.2973 33.673 51.6484 35.1568 51.6484 36.9702C51.6484 38.7836 53.2969 40.2675 55.3119 40.2675H88.7248V39.8905Z" fill="#83C3FF"></path><path d="M80.685 27.079H88.1075C88.0766 26.8436 88.055 26.6068 88.055 26.3675C88.055 24.9131 88.648 23.495 89.7247 22.3737C89.8893 22.2321 90.691 21.526 91.6922 20.4849H80.685C78.6699 20.4849 77.0215 21.9687 77.0215 23.7821C77.0215 25.5952 78.6699 27.079 80.685 27.079Z" fill="#83C3FF"></path><path d="M153.863 20.4844H98.9004C99.9437 21.5546 100.786 22.2654 100.962 22.411C102.053 23.3989 102.588 24.6959 102.588 26.367C102.588 27.177 102.403 27.9676 102.059 28.704C102.383 29.1956 102.573 29.766 102.573 30.3758C102.573 31.6843 101.713 32.8174 100.479 33.3489V38.8125C100.479 39.0112 100.64 39.1719 100.838 39.1719H101.198C101.594 39.1719 101.916 39.4942 101.916 39.8906V40.2676H137.561C139.575 40.2676 141.224 38.7838 141.224 36.9703C141.224 35.1569 139.576 33.6731 137.561 33.6731H132.981C130.966 33.6731 129.317 32.1896 129.317 30.3758C129.317 28.562 130.966 27.0785 132.981 27.0785H153.863C155.878 27.0785 157.527 25.5947 157.527 23.7813C157.527 21.9682 155.878 20.4844 153.863 20.4844Z" fill="#83C3FF"></path><path d="M169.067 36.9702C169.067 38.7836 167.418 40.2675 165.403 40.2675H151.116C149.101 40.2675 147.452 38.7836 147.452 36.9702C147.452 35.1568 149.101 33.673 151.116 33.673H165.403C167.418 33.673 169.067 35.1568 169.067 36.9702Z" fill="#83C3FF"></path><path d="M100.841 39.1721V30.2416C100.818 30.2481 100.795 30.2549 100.77 30.2549H89.8784C89.854 30.2549 89.8306 30.2477 89.8076 30.2416V39.1721H100.841Z" fill="#EA2A3D"></path><path d="M95.4162 39.1722V30.2554H89.8804C89.8559 30.2554 89.8326 30.2482 89.8096 30.2421V39.1722H95.4162Z" fill="#B7092B"></path><path d="M87.4985 80.0243C87.5567 80.1523 87.6846 80.2349 87.8255 80.2349C87.9664 80.2349 88.0943 80.1526 88.1525 80.0243L95.1988 64.5306C95.2606 64.3951 95.3145 64.3462 95.3346 64.3315C95.3386 64.3462 95.3925 64.3951 95.4543 64.5306L102.501 80.0243C102.559 80.1523 102.687 80.2349 102.828 80.2349C102.968 80.2349 103.096 80.1526 103.155 80.0243L109.12 66.9071L101.344 44.563H89.3101L81.5332 66.9071L87.4985 80.0243Z" fill="#B7092B"></path><path d="M87.4973 80.0238C87.5555 80.1518 87.6834 80.2344 87.8243 80.2344C87.9652 80.2344 88.0931 80.1521 88.1513 80.0238L95.1976 64.5301C95.2594 64.3946 95.3133 64.3457 95.3335 64.331C95.3374 64.3457 95.3913 64.3946 95.4531 64.5301L102.499 80.0238C102.558 80.1518 102.686 80.2344 102.826 80.2344C102.967 80.2344 103.095 80.1521 103.153 80.0238L104.003 78.1569L98.2742 44.5625H92.3776L86.6484 78.1569L87.4973 80.0238Z" fill="#A00026"></path><path d="M110.778 64.3811C110.528 63.8313 110.119 63.8313 109.869 64.3811L102.822 79.8749L104.016 82.4994H119.018L110.778 64.3811Z" fill="#FE3745"></path><path d="M118.458 148.781V140.306C118.458 140.273 118.454 140.241 118.445 140.209L116.432 133.018C116.625 133.012 116.78 132.853 116.78 132.658C116.78 132.46 116.619 132.299 116.42 132.299C116.277 132.299 116.14 132.244 116.036 132.145C112.57 128.849 110.372 124.757 109.675 120.39H88.4847C90.8225 123.535 91.9728 127.348 91.9728 131.956C91.9728 137.519 89.5952 142.843 85.278 146.949C85.2439 146.981 85.1986 147.011 85.1397 147.041C85.0462 147.088 84.9783 147.173 84.9528 147.275L84.5762 148.781H118.458Z" fill="#FE3745"></path><path d="M114.102 148.781V130.054C112.835 128.507 111.81 126.833 111.048 125.072C109.544 125.164 108.352 126.41 108.352 127.938V148.781H114.102V148.781Z" fill="#EA2A3D"></path><path d="M104.758 148.781V127.938C104.758 126.35 103.471 125.062 101.883 125.062C100.295 125.062 99.0078 126.35 99.0078 127.938V148.781H104.758Z" fill="#EA2A3D"></path><path d="M92.5391 125.062C91.9971 125.062 91.4918 125.215 91.0592 125.476C91.6683 127.44 91.9748 129.592 91.9748 131.956C91.9748 135.177 91.1731 138.316 89.6641 141.186V148.781H95.4141V127.938C95.4141 126.35 94.1268 125.062 92.5391 125.062Z" fill="#EA2A3D"></path><path d="M118.461 154.531H83.1414L82.836 155.753C82.8288 155.782 82.8252 155.811 82.8252 155.84V183.524C85.8411 183.837 88.9015 184 92.0004 184C101.222 184 110.108 182.573 118.461 179.943V154.531Z" fill="#FE3745"></path><path d="M118.46 148.422H84.6676L83.0508 154.891H118.46V148.422Z" fill="#A00026"></path><path d="M75.1978 96.3129C76.0075 96.3129 76.8132 96.453 77.5934 96.7294C77.6326 96.7434 77.6732 96.7502 77.7134 96.7502C77.7867 96.7502 77.8593 96.7276 77.9208 96.6841C78.016 96.6165 78.0728 96.5077 78.0728 96.3909V96.3129C78.0728 92.3497 81.2971 89.1254 85.2603 89.1254C89.2235 89.1254 92.4478 92.3497 92.4478 96.3129V96.3909C92.4478 96.5077 92.5046 96.6169 92.5998 96.6841C92.6613 96.7276 92.7339 96.7502 92.8072 96.7502C92.8474 96.7502 92.888 96.7434 92.9272 96.7294C93.7074 96.4527 94.5135 96.3129 95.3228 96.3129C96.131 96.3129 96.9371 96.4534 97.7184 96.7297C97.7576 96.7438 97.7982 96.7506 97.8384 96.7506C97.9117 96.7506 97.9843 96.7279 98.0458 96.6845C98.141 96.6169 98.1978 96.508 98.1978 96.3912V96.3129C98.1978 92.3497 101.422 89.1254 105.385 89.1254C109.348 89.1254 112.573 92.3497 112.573 96.3129V96.3901C112.573 96.5069 112.63 96.6162 112.725 96.6834C112.786 96.7269 112.859 96.7495 112.932 96.7495C112.972 96.7495 113.013 96.7427 113.052 96.7287C113.831 96.4527 114.637 96.3129 115.448 96.3129C116.722 96.3129 117.943 96.6489 119.02 97.2681V82.4996H71.626V97.2753C72.7027 96.6554 73.9332 96.3129 75.1978 96.3129Z" fill="#B7092B"></path><path d="M75.1978 96.3125C76.0075 96.3125 76.8132 96.4527 77.5934 96.729C77.6326 96.743 77.6732 96.7499 77.7134 96.7499C77.7867 96.7499 77.8593 96.7272 77.9208 96.6837C78.016 96.6162 78.0728 96.5073 78.0728 96.3905V96.3125C78.0728 93.3204 79.9121 90.7512 82.5186 89.6713V82.4996H71.626V97.2753C72.7027 96.655 73.9332 96.3125 75.1978 96.3125Z" fill="#A00026"></path><path d="M82.2687 102.249C82.287 102.354 82.3513 102.446 82.4441 102.498C82.499 102.53 82.5605 102.546 82.6227 102.546C82.6651 102.546 82.7078 102.538 82.7485 102.523C83.5664 102.218 84.4113 102.063 85.2598 102.063C86.1083 102.063 86.9531 102.218 87.7711 102.523C87.8117 102.539 87.8545 102.546 87.8969 102.546C87.9587 102.546 88.0205 102.53 88.0755 102.498C88.1682 102.446 88.2325 102.354 88.2508 102.249C88.7033 99.6777 90.4797 97.6343 92.8066 96.766V96.3125C92.8066 92.1445 89.4278 88.7656 85.2598 88.7656C81.0917 88.7656 77.7129 92.1445 77.7129 96.3125V96.766C80.0402 97.6343 81.8162 99.6773 82.2687 102.249Z" fill="#EA2A3D"></path><path d="M102.414 102.371C102.431 102.481 102.498 102.576 102.595 102.63C102.649 102.659 102.709 102.675 102.769 102.675C102.817 102.675 102.865 102.665 102.911 102.645C103.81 102.259 104.764 102.062 105.746 102.062C106.488 102.062 107.224 102.177 107.933 102.404C107.969 102.415 108.006 102.421 108.043 102.421C108.107 102.421 108.17 102.404 108.226 102.371C108.315 102.318 108.376 102.231 108.396 102.13C108.88 99.622 110.647 97.6285 112.934 96.7703V96.3125C112.934 92.1445 109.555 88.7656 105.387 88.7656C101.219 88.7656 97.8398 92.1445 97.8398 96.3125V96.7614C100.209 97.6397 101.996 99.7338 102.414 102.371Z" fill="#EA2A3D"></path><path d="M77.5806 109.609H78.0744V109.25C78.0744 106.197 79.9905 103.591 82.6801 102.55C82.2118 98.8317 79.0447 95.9531 75.199 95.9531C72.6992 95.9531 70.4897 97.1739 69.1162 99.0463C71.7393 102.993 74.7904 106.62 77.5806 109.609Z" fill="#FE3745"></path><path d="M92.4495 109.25V109.609H98.5589V109.25C98.5589 106.327 100.315 103.811 102.826 102.689C102.421 98.9025 99.218 95.9531 95.3245 95.9531C91.4788 95.9531 88.312 98.8317 87.8438 102.55C90.5333 103.591 92.4495 106.197 92.4495 109.25Z" fill="#FE3745"></path><path d="M92.8086 109.609V109.25C92.8086 105.082 89.4297 101.703 85.2617 101.703C81.0937 101.703 77.7148 105.082 77.7148 109.25V109.609H92.8086Z" fill="#EA2A3D"></path><path d="M112.524 106.873C113.31 105.619 114.235 104.425 115.299 103.317C115.804 102.882 117.962 100.989 120.77 98.1503C119.405 96.793 117.525 95.9531 115.448 95.9531C111.646 95.9531 108.509 98.7678 107.986 102.425C110.103 103.122 111.786 104.777 112.524 106.873Z" fill="#FE3745"></path><path d="M112.766 106.49C111.663 103.689 108.94 101.703 105.747 101.703C101.579 101.703 98.2002 105.082 98.2002 109.25V109.609H111.079C111.547 108.535 112.109 107.491 112.766 106.49Z" fill="#EA2A3D"></path><path d="M111.297 109.121H77.1309C81.7851 114.173 85.8227 117.537 86.1098 117.774C87.1973 118.759 88.1252 119.828 88.9072 120.98H109.789C109.561 119.793 109.438 118.584 109.438 117.363C109.438 114.522 110.082 111.723 111.297 109.121Z" fill="#B7092B"></path><path d="M86.0755 117.746H89.3965V112.355H84.0059V115.937C85.1411 116.963 85.8926 117.594 86.0755 117.746Z" fill="#A00026"></path><path d="M98.0215 112.355H92.6309V117.746H98.0215V112.355Z" fill="#A00026"></path><path d="M106.646 112.355H101.256V117.746H106.646V112.355Z" fill="#A00026"></path><path d="M95.4574 16.1048C95.8456 16.7624 96.2826 17.3935 96.7354 17.9875V12.0482C96.3566 12.3773 95.8635 12.5782 95.3237 12.5782C94.784 12.5782 94.2905 12.3773 93.9121 12.0482V17.916C94.3534 17.3382 94.7786 16.7297 95.1563 16.1044L95.4574 16.1048Z" fill="#EF8318"></path><path d="M95.3237 8.26563C95.8639 8.26563 96.3566 8.46652 96.7354 8.7957V1.07813C96.7354 0.485156 96.2502 0 95.6572 0H94.9902C94.3973 0 93.9121 0.485156 93.9121 1.07813V8.7957C94.2905 8.46652 94.7836 8.26563 95.3237 8.26563Z" fill="#EF8318"></path><path d="M134.772 79.4217C134.345 79.4217 133.939 79.3307 133.57 79.1694V81.5736H135.974V79.1694C135.605 79.3307 135.199 79.4217 134.772 79.4217Z" fill="#FFAF10"></path><path d="M138.893 62.3023H135.972V60.0156C135.972 59.4227 135.487 58.9375 134.894 58.9375H134.647C134.054 58.9375 133.569 59.4227 133.569 60.0156V62.3023H130.648C130.055 62.3023 129.57 62.7875 129.57 63.3805V63.6273C129.57 64.22 130.055 64.7055 130.648 64.7055H133.569V73.6636C133.937 73.5023 134.343 73.4113 134.77 73.4113C135.198 73.4113 135.604 73.5023 135.972 73.6636V64.7055H138.893C139.486 64.7055 139.971 64.22 139.971 63.6273V63.3805C139.971 62.7875 139.486 62.3023 138.893 62.3023Z" fill="#FFAF10"></path><path d="M138.136 76.4166C138.136 78.275 136.629 79.7811 134.771 79.7811C132.913 79.7811 131.406 78.275 131.406 76.4166C131.406 74.558 132.913 73.0518 134.771 73.0518C136.629 73.0515 138.136 74.558 138.136 76.4166Z" fill="#EF9614"></path><path d="M118.101 180.066C130.647 176.177 141.992 169.556 151.443 160.901V139.897H118.101V180.066Z" fill="#B7092B"></path><path d="M151.444 140.156H118.101L115.96 132.509H153.585L151.444 140.156Z" fill="#FFAF10"></path><path d="M115.96 132.509L118.101 140.156H125.587L123.445 132.509H115.96Z" fill="#EF9614"></path><path d="M154.561 103.11C154.548 103.098 142.686 93.3811 135.92 81.5738H133.52C126.757 93.0979 115.063 103.045 115.041 103.069C111.195 107.073 109.077 112.149 109.077 117.364C109.077 122.947 111.461 128.289 115.79 132.406C115.961 132.568 116.187 132.659 116.423 132.659H153.123C153.358 132.659 153.585 132.568 153.755 132.406C158.084 128.289 160.468 122.948 160.468 117.364C160.468 111.372 158.536 106.71 154.561 103.11Z" fill="#02AF8E"></path><path d="M158.041 107.393C151.633 104.905 145.756 101.091 140.754 96.0879C137.438 92.7716 134.652 89.0678 132.42 85.0842H131.281C130.532 86.1777 129.754 87.2476 128.959 88.2866C131.299 92.2692 134.158 95.9811 137.51 99.332C143.918 105.74 151.639 110.362 160.07 112.952C159.683 110.92 159.007 109.072 158.041 107.393Z" fill="#FFD00D"></path><path d="M138.114 85.0845C137.343 83.9403 136.605 82.7687 135.92 81.5738H133.52C132.821 82.7644 132.068 83.9363 131.282 85.0845H138.114Z" fill="#159E97"></path><path d="M160.438 118.303C149.948 116.701 140.276 111.832 132.64 104.196C129.441 100.998 126.729 97.4402 124.538 93.6161C123.408 94.8844 122.307 96.0588 121.277 97.1197C123.534 100.829 126.248 104.294 129.396 107.442C137.716 115.762 148.251 121.072 159.679 122.83C160.105 121.357 160.364 119.843 160.438 118.303Z" fill="#FFD00D"></path><path d="M121.288 115.55C130.386 124.648 142.132 130.148 154.797 131.339C156.056 129.98 157.118 128.508 157.97 126.953C145.327 126.447 133.519 121.293 124.532 112.306C121.352 109.126 118.654 105.591 116.469 101.792C115.574 102.609 115.041 103.064 115.036 103.069C114.366 103.767 113.751 104.5 113.188 105.259C115.441 108.956 118.149 112.411 121.288 115.55Z" fill="#FFD00D"></path><path d="M136.355 132.659C128.919 130.246 122.107 126.098 116.425 120.415C113.899 117.889 111.679 115.139 109.776 112.212C109.317 113.891 109.074 115.619 109.074 117.364C109.074 117.973 109.108 118.578 109.164 119.179C110.413 120.733 111.75 122.23 113.18 123.66C116.748 127.227 120.722 130.241 125 132.66H136.355V132.659Z" fill="#FFD00D"></path><path d="M80.7753 64.3811C80.5252 63.8313 80.1159 63.8313 79.8657 64.3811L71.626 82.4994H86.6284L87.8219 79.8749L80.7753 64.3811Z" fill="#FE3745"></path><path d="M95.7776 64.3811C95.5275 63.8313 95.1182 63.8313 94.868 64.3811L86.6279 82.4994H104.018L95.7776 64.3811Z" fill="#EA2A3D"></path><path d="M101.196 22.1369C101.192 22.133 97.6717 19.2497 95.6635 15.7454H94.9512C92.9441 19.166 89.4737 22.1171 89.4672 22.1247C88.3258 23.3131 87.6973 24.82 87.6973 26.3675C87.6973 28.0242 88.4049 29.6098 89.6896 30.832C89.7403 30.8801 89.8075 30.9067 89.8776 30.9067H100.77C100.84 30.9067 100.907 30.8801 100.957 30.832C102.242 29.6101 102.95 28.0242 102.95 26.3675C102.95 24.5889 102.376 23.2046 101.196 22.1369Z" fill="#FFAF10"></path><path d="M91.8213 26.367C91.8213 24.8195 92.4498 23.3127 93.5912 22.1242C93.5962 22.1184 95.5397 20.4646 97.3592 18.1998C96.7526 17.4423 96.1625 16.6128 95.6655 15.7449H94.9532C92.9461 19.1655 89.4756 22.1167 89.4691 22.1242C88.3278 23.3127 87.6992 24.8195 87.6992 26.367C87.6992 28.0237 88.4068 29.6093 89.6916 30.8315C89.7423 30.8797 89.8095 30.9062 89.8795 30.9062H94.0019C93.9319 30.9062 93.8647 30.8797 93.8143 30.8315C92.5289 29.6096 91.8213 28.0237 91.8213 26.367Z" fill="#EF9614"></path><path d="M97.8438 10.4219C97.8438 11.8112 96.7175 12.9375 95.3281 12.9375C93.9388 12.9375 92.8125 11.8112 92.8125 10.4219C92.8125 9.03253 93.9388 7.90625 95.3281 7.90625C96.7175 7.90625 97.8438 9.03253 97.8438 10.4219Z" fill="#FFAF10"></path><path d="M41.1495 72.3246C40.7046 72.3246 40.2816 72.2304 39.8975 72.0633V74.6177H42.4016V72.0633C42.0174 72.2304 41.5944 72.3246 41.1495 72.3246Z" fill="#FFAF10"></path><path d="M45.4909 54.5373H42.4028V52.1094C42.4028 51.5164 41.9176 51.0312 41.3247 51.0312H40.9768C40.3838 51.0312 39.8987 51.5164 39.8987 52.1094V54.5373H36.8105C36.2176 54.5373 35.7324 55.0225 35.7324 55.6154V55.963C35.7324 56.5559 36.2176 57.0411 36.8105 57.0411H39.8987V66.2925C40.2828 66.125 40.7058 66.0308 41.1507 66.0308C41.5956 66.0308 42.0186 66.125 42.4028 66.2925V57.0411H45.4909C46.0839 57.0411 46.569 56.5559 46.569 55.963V55.6154C46.569 55.0221 46.0839 54.5373 45.4909 54.5373Z" fill="#FFAF10"></path><path d="M44.6537 69.1778C44.6537 71.1144 43.084 72.6838 41.1477 72.6838C39.2114 72.6838 37.6416 71.1144 37.6416 69.1778C37.6416 67.2411 39.2114 65.6717 41.1477 65.6717C43.084 65.6717 44.6537 67.2411 44.6537 69.1778Z" fill="#EF9614"></path><path d="M49.7353 155.841C49.7353 155.811 49.7317 155.782 49.7245 155.754L47.6052 147.275C47.5797 147.174 47.5118 147.088 47.4184 147.042C47.3594 147.012 47.3141 146.982 47.28 146.949C43.9824 143.813 41.8211 139.965 40.982 135.844H23.7783V151.611C30.9338 160.371 39.7486 167.717 49.7353 173.193V155.841Z" fill="#FE3745"></path><path d="M40.5844 131.957C40.5844 130.462 40.7652 128.978 41.1059 127.527H21.5469L23.7779 136.452H41.117C40.7691 134.984 40.5844 133.48 40.5844 131.957Z" fill="#B7092B"></path><path d="M21.5469 127.527L23.7779 136.452H29.332L27.101 127.527H21.5469Z" fill="#A00026"></path><path d="M46.5308 117.711C47.6578 116.739 56.8955 108.626 63.462 98.8015C62.9417 98.196 62.3803 97.6131 61.7669 97.0575C61.7532 97.0449 49.3932 86.9199 42.3437 74.6177H39.8435C32.7958 86.6255 20.612 96.9895 20.5882 97.014C16.5816 101.186 14.375 106.476 14.375 111.909C14.375 117.727 16.859 123.293 21.3695 127.582C21.5474 127.751 21.7832 127.845 22.0283 127.845H41.0327C41.8388 124.14 43.7194 120.638 46.5308 117.711Z" fill="#293D7C"></path><path d="M46.5312 117.71C47.4843 116.889 54.2373 110.961 60.2705 103.209C59.4935 100.888 58.3622 98.8447 56.8578 97.0572C56.8485 97.046 49.2412 88.8634 43.8014 78.2748H38.3781C32.9644 88.6546 25.5002 96.9914 25.484 97.0137C22.4312 101.186 20.75 106.475 20.75 111.909C20.75 117.727 22.6425 123.293 26.0792 127.582C26.2147 127.751 26.3943 127.845 26.5812 127.845H41.0331C41.8392 124.139 43.7198 120.638 46.5312 117.71Z" fill="white"></path><path d="M46.5305 117.71C47.26 117.082 51.3882 113.461 55.99 108.321C55.627 103.765 54.5374 100.056 52.6848 97.0572C52.6776 97.046 47.0911 88.8634 43.0963 78.2748H39.1134C35.1376 88.6546 29.6561 96.9914 29.6446 97.0137C27.4028 101.186 26.168 106.475 26.168 111.909C26.168 117.727 27.558 123.293 30.0816 127.582C30.1811 127.751 30.3134 127.845 30.4503 127.845H41.0328C41.8385 124.139 43.7191 120.638 46.5305 117.71Z" fill="#293D7C"></path><path d="M46.5309 117.71C46.8619 117.425 47.8976 116.518 49.3559 115.138C49.4084 114.075 49.4357 112.996 49.4357 111.909C49.4357 105.666 48.8125 100.807 47.5303 97.0572C47.5263 97.046 44.4361 88.8634 42.2263 78.2748H40.023C37.8236 88.6546 34.7912 96.9914 34.7847 97.0137C33.5445 101.186 32.8613 106.475 32.8613 111.909C32.8613 117.727 33.63 123.293 35.0262 127.582C35.0812 127.751 35.1541 127.845 35.2303 127.845H41.0328C41.8389 124.139 43.7195 120.638 46.5309 117.71Z" fill="white"></path><path d="M44.0967 120.726C44.2523 117.955 44.3349 114.968 44.3349 111.909C44.3349 105.666 44.0952 100.807 43.6018 97.0572C43.6007 97.046 42.4119 88.8634 41.562 78.2748H40.7146C39.8686 88.6546 38.7024 96.9914 38.6999 97.0137C38.2227 101.186 37.96 106.475 37.96 111.909C37.96 117.727 38.2557 123.293 38.7926 127.582C38.8142 127.751 38.8419 127.845 38.871 127.845H41.0315C41.5767 125.34 42.6135 122.93 44.0967 120.726Z" fill="#293D7C"></path><path d="M44.6289 78.2755C43.8253 77.0838 43.0555 75.8626 42.3425 74.6177H39.8424C39.1143 75.8579 38.3294 77.0795 37.5107 78.2755H44.6289Z" fill="#1A2B63"></path><path d="M66.2779 91.8955C65.8448 91.8955 65.433 91.8035 65.0596 91.6404V95.6668H67.4961V91.6404C67.1227 91.8035 66.7109 91.8955 66.2779 91.8955Z" fill="#FFAF10"></path><path d="M70.4732 76.1261H67.4969V73.7924C67.4969 73.1997 67.0117 72.7142 66.4188 72.7142H66.1385C65.5455 72.7142 65.0603 73.1997 65.0603 73.7924V76.1261H62.084C61.491 76.1261 61.0059 76.6117 61.0059 77.2043V77.4842C61.0059 78.0772 61.491 78.5623 62.084 78.5623H65.0603V86.0456C65.4341 85.8825 65.8456 85.7905 66.2786 85.7905C66.7117 85.7905 67.1235 85.8825 67.4969 86.0456V78.5623H70.4732C71.0662 78.5623 71.5514 78.0772 71.5514 77.4842V77.2043C71.5514 76.6117 71.0662 76.1261 70.4732 76.1261Z" fill="#FFAF10"></path><path d="M69.69 88.8425C69.69 90.7271 68.1623 92.2544 66.2781 92.2544C64.3936 92.2544 62.8662 90.7271 62.8662 88.8425C62.8662 86.9579 64.3936 85.4306 66.2781 85.4306C68.1627 85.4306 69.69 86.9579 69.69 88.8425Z" fill="#EF9614"></path><path d="M49.375 173.007C59.5751 178.661 71.0137 182.352 83.1839 183.562V155.31H49.375V173.007Z" fill="#EA2A3D"></path><path d="M83.1834 155.84H49.3745L47.2031 147.155H85.3544L83.1834 155.84Z" fill="#B7092B"></path><path d="M47.2031 147.155L49.3745 155.84H54.819L52.6477 147.155H47.2031Z" fill="#A00026"></path><path d="M89.4482 44.9219C88.8553 44.9219 88.3701 44.4367 88.3701 43.8438V39.8906C88.3701 39.2977 88.8553 38.8125 89.4482 38.8125H101.201C101.793 38.8125 102.279 39.2977 102.279 39.8906V43.8438C102.279 44.4367 101.793 44.9219 101.201 44.9219H89.4482Z" fill="#FE3745"></path><path d="M93.979 43.8438V39.8906C93.979 39.2977 94.4642 38.8125 95.0572 38.8125H89.4502C88.8572 38.8125 88.3721 39.2977 88.3721 39.8906V43.8438C88.3721 44.4367 88.8572 44.9219 89.4502 44.9219H95.0572C94.4642 44.9219 93.979 44.4367 93.979 43.8438Z" fill="#EA2A3D"></path><path d="M107.097 163.156H97.4385C96.4502 163.156 95.6416 163.965 95.6416 164.953V183.919C100.155 183.735 104.58 183.213 108.894 182.375V164.953C108.894 163.965 108.085 163.156 107.097 163.156Z" fill="#EA2A3D"></path><path d="M55.0606 162.051L52.2334 174.524C54.4583 175.653 56.7389 176.687 59.0676 177.627L55.5371 162.051C55.4063 161.473 55.1918 161.473 55.0606 162.051Z" fill="#B7092B"></path><path d="M29.8311 145.265L27.7949 156.192C29.5379 158.049 31.3599 159.831 33.2567 161.531L30.2257 145.265C30.1176 144.682 29.94 144.682 29.8311 145.265Z" fill="#EA2A3D"></path><path d="M41.6901 145.265L37.9307 165.442C40.815 167.689 43.8442 169.759 46.9995 171.639L42.085 145.265C41.9765 144.682 41.799 144.682 41.6901 145.265Z" fill="#EA2A3D"></path><path d="M64.8645 162.052L61.1504 178.44C63.9262 179.478 66.7671 180.382 69.6679 181.141L65.3414 162.052C65.2103 161.473 64.9957 161.473 64.8645 162.052Z" fill="#B7092B"></path><path d="M74.6725 162.052L70.3086 181.305C73.4535 182.102 76.667 182.726 79.9366 183.174L75.149 162.052C75.0182 161.473 74.8037 161.473 74.6725 162.052Z" fill="#B7092B"></path><path d="M125.575 145.442L120.6 179.246C123.92 178.106 127.151 176.776 130.279 175.264L125.889 145.443C125.803 144.856 125.661 144.856 125.575 145.442Z" fill="#FE3745"></path><path d="M135.382 145.443L131.049 174.881C133.903 173.466 136.672 171.905 139.34 170.2L135.696 145.443C135.61 144.856 135.468 144.856 135.382 145.443Z" fill="#FE3745"></path><path d="M145.189 145.443L141.784 168.576C143.996 167.057 146.136 165.442 148.195 163.732L145.503 145.443C145.417 144.856 145.275 144.856 145.189 145.443Z" fill="#FE3745"></path><path d="M86.3453 117.504C86.332 117.492 74.3037 107.639 67.4436 95.6666H65.0106C58.1519 107.352 46.2954 117.438 46.2721 117.462C42.3729 121.522 40.2256 126.67 40.2256 131.957C40.2256 137.619 42.6431 143.035 47.0321 147.21C47.205 147.374 47.435 147.466 47.6733 147.466H84.8869C85.1252 147.466 85.3552 147.374 85.528 147.21C89.9174 143.035 92.335 137.619 92.335 131.957C92.335 125.881 90.3757 121.153 86.3453 117.504Z" fill="#FFD00D"></path><path d="M69.6672 99.2258C68.8852 98.0658 68.1363 96.8777 67.4423 95.6666H65.0093C64.3006 96.8734 63.537 98.0622 62.7402 99.2258H69.6672Z" fill="#0F9390"></path><path d="M88.3503 131.891L91.226 129.015L92.261 130.05C92.1589 128.648 91.9401 127.324 91.6051 126.073L91.226 126.452L88.3503 123.576L89.9498 121.976C89.6462 121.438 89.3148 120.915 88.9522 120.411L87.0684 122.294L84.1923 119.418L86.2141 117.396C85.9992 117.216 85.5195 116.81 84.8392 116.207L82.9104 118.136L80.0343 115.26L81.8513 113.442C81.4377 113.045 81.005 112.622 80.5558 112.174L78.7524 113.978L75.8764 111.102L77.7282 109.25C77.3243 108.816 76.9164 108.371 76.5038 107.911L74.5945 109.82L71.7184 106.944L73.8477 104.815C73.4657 104.349 73.0851 103.875 72.7067 103.392L70.4365 105.662L67.5604 102.786L70.2575 100.089C70.0584 99.8037 69.8626 99.5148 69.6674 99.2258H68.5577L66.2789 101.505L64.0001 99.2258H62.7398C62.5633 99.4835 62.3872 99.7415 62.2075 99.9967L64.9974 102.787L62.1213 105.663L59.7501 103.291C59.3717 103.773 58.9911 104.248 58.6095 104.714L60.8397 106.944L57.9637 109.82L55.9605 107.817C55.5505 108.278 55.1444 108.727 54.7429 109.163L56.6821 111.102L53.8061 113.978L51.9362 112.109C51.491 112.56 51.0622 112.987 50.6533 113.389L52.5242 115.26L49.6481 118.136L47.7006 116.189C46.9898 116.837 46.5136 117.252 46.3454 117.398L48.3662 119.418L45.4901 122.294L43.768 120.572C43.4194 121.092 43.0974 121.625 42.7984 122.166L44.2086 123.576L41.3329 126.452L41.0856 126.206C40.7072 127.454 40.4499 128.733 40.3216 130.027L41.3325 129.016L44.2082 131.892L41.3325 134.768L40.3115 133.747C40.4305 135.058 40.6799 136.35 41.0533 137.61L41.3321 137.331L44.2079 140.208L42.7466 141.669C43.0439 142.212 43.3655 142.744 43.7127 143.266L45.4894 141.489L48.3655 144.365L46.2746 146.456C46.5201 146.711 46.7717 146.963 47.0311 147.21C47.204 147.374 47.434 147.466 47.6722 147.466H47.8286L49.6477 145.647L51.4669 147.466H56.1445L57.9637 145.647L59.7825 147.466H64.4601L66.2792 145.647L68.098 147.466H72.7757L74.5948 145.647L76.414 147.466H81.0916L82.9108 145.647L84.7296 147.466H84.8859C85.1242 147.466 85.3542 147.374 85.527 147.21C85.7865 146.963 86.0377 146.711 86.2831 146.456L84.1923 144.365L87.0684 141.489L88.8451 143.266C89.1923 142.744 89.5143 142.211 89.8115 141.669L88.3503 140.208L91.226 137.331L91.5049 137.61C91.8782 136.35 92.1276 135.058 92.2466 133.747L91.2256 134.768L88.3503 131.891ZM89.9445 127.733L87.0684 130.609L84.1923 127.733L87.0684 124.857L89.9445 127.733ZM74.5948 126.451L71.7187 123.575L74.5948 120.699L77.4709 123.575L74.5948 126.451ZM78.7528 124.857L81.6289 127.733L78.7528 130.61L75.8767 127.733L78.7528 124.857ZM63.4028 123.575L66.2789 120.699L69.155 123.575L66.2789 126.451L63.4028 123.575ZM64.9974 127.733L62.1213 130.609L59.2452 127.733L62.1213 124.857L64.9974 127.733ZM70.4365 124.857L73.3126 127.733L70.4369 130.609L67.5608 127.733L70.4365 124.857ZM70.4365 122.294L67.5604 119.418L70.4369 116.542L73.3129 119.418L70.4365 122.294ZM66.2789 118.136L63.4028 115.26L66.2789 112.384L69.155 115.26L66.2789 118.136ZM64.9974 119.418L62.1213 122.294L59.2452 119.418L62.1213 116.542L64.9974 119.418ZM60.8394 123.575L57.9633 126.451L55.0872 123.575L57.9633 120.699L60.8394 123.575ZM56.6814 127.733L53.8053 130.61L50.9293 127.733L53.8053 124.857L56.6814 127.733ZM52.5235 131.892L49.6477 134.767L46.7717 131.891L49.6477 129.015L52.5235 131.892ZM53.8053 133.173L56.6814 136.049L53.8053 138.925L50.9293 136.049L53.8053 133.173ZM55.0872 131.892L57.9633 129.015L60.8394 131.891L57.9633 134.767L55.0872 131.892ZM62.1209 133.173L64.997 136.049L62.1209 138.925L59.2448 136.049L62.1209 133.173ZM63.4028 131.891L66.2789 129.015L69.155 131.891L66.2789 134.767L63.4028 131.891ZM70.4369 133.173L73.3129 136.049L70.4369 138.925L67.5608 136.049L70.4369 133.173ZM71.7187 131.891L74.5948 129.015L77.4709 131.892L74.5948 134.767L71.7187 131.891ZM78.7524 133.173L81.6285 136.049L78.7524 138.925L75.8764 136.049L78.7524 133.173ZM80.0343 131.892L82.9104 129.015L85.7865 131.891L82.9104 134.767L80.0343 131.892ZM85.7865 123.575L82.9104 126.451L80.0343 123.575L82.9104 120.699L85.7865 123.575ZM81.6289 119.418L78.7528 122.294L75.8767 119.418L78.7528 116.541L81.6289 119.418ZM77.4709 115.26L74.5948 118.136L71.7187 115.26L74.5948 112.384L77.4709 115.26ZM73.3129 111.102L70.4369 113.978L67.5608 111.102L70.4369 108.225L73.3129 111.102ZM66.2789 104.068L69.155 106.944L66.2789 109.82L63.4028 106.944L66.2789 104.068ZM62.1213 108.225L64.9974 111.102L62.1213 113.978L59.2452 111.102L62.1213 108.225ZM57.9629 112.384L60.839 115.26L57.9629 118.136L55.0869 115.26L57.9629 112.384ZM53.8053 116.541L56.6814 119.418L53.8053 122.294L50.9293 119.418L53.8053 116.541ZM49.6474 120.699L52.5231 123.575L49.6474 126.451L46.7713 123.575L49.6474 120.699ZM42.6137 127.733L45.4898 124.857L48.3658 127.733L45.4898 130.609L42.6137 127.733ZM42.6137 136.049L45.4898 133.173L48.3662 136.049L45.4898 138.925L42.6137 136.049ZM46.7713 140.207L49.6474 137.331L52.5231 140.207L49.647 143.083L46.7713 140.207ZM53.8053 147.241L50.9293 144.365L53.8053 141.489L56.6814 144.365L53.8053 147.241ZM55.0872 140.207L57.9633 137.331L60.8394 140.207L57.9633 143.083L55.0872 140.207ZM62.1213 147.241L59.2452 144.365L62.1213 141.489L64.9974 144.365L62.1213 147.241ZM63.4028 140.207L66.2789 137.331L69.155 140.207L66.2789 143.083L63.4028 140.207ZM70.4365 147.241L67.5604 144.365L70.4365 141.489L73.3126 144.365L70.4365 147.241ZM71.7184 140.207L74.5945 137.331L77.4705 140.207L74.5945 143.083L71.7184 140.207ZM78.7524 147.241L75.876 144.365L78.7524 141.489L81.6285 144.365L78.7524 147.241ZM82.9104 143.083L80.0343 140.207L82.91 137.331L85.7861 140.207L82.9104 143.083ZM87.0684 138.925L84.1923 136.049L87.0684 133.173L89.9445 136.049L87.0684 138.925Z" fill="#02AF8E"></path></svg> 